<svg width="98" height="46" viewBox="0 0 98 46" fill="none" xmlns="http://www.w3.org/2000/svg">
<rect x="8" y="11" width="90" height="35" rx="17.5" fill="#F06F00"/>
<path d="M25.168 34V22.8H28.608C29.9093 22.8 30.9867 23.0293 31.84 23.488C32.6933 23.9467 33.3227 24.5973 33.728 25.44C34.144 26.272 34.352 27.264 34.352 28.416C34.352 29.568 34.144 30.56 33.728 31.392C33.3227 32.224 32.6933 32.8693 31.84 33.328C30.9973 33.776 29.92 34 28.608 34H25.168ZM26.768 32.656H28.544C29.5787 32.656 30.4 32.4853 31.008 32.144C31.616 31.8027 32.048 31.3173 32.304 30.688C32.5707 30.048 32.704 29.2907 32.704 28.416C32.704 27.5307 32.5707 26.768 32.304 26.128C32.048 25.488 31.616 24.9973 31.008 24.656C30.4 24.3147 29.5787 24.144 28.544 24.144H26.768V32.656ZM39.2054 34.192C38.4374 34.192 37.7547 34.016 37.1574 33.664C36.56 33.312 36.0907 32.8213 35.7494 32.192C35.4187 31.5627 35.2534 30.832 35.2534 30C35.2534 29.1467 35.4187 28.4053 35.7494 27.776C36.0907 27.136 36.56 26.64 37.1574 26.288C37.7547 25.9253 38.448 25.744 39.2374 25.744C40.0267 25.744 40.704 25.92 41.2694 26.272C41.8347 26.624 42.272 27.0933 42.5814 27.68C42.8907 28.256 43.0454 28.896 43.0454 29.6C43.0454 29.7067 43.04 29.824 43.0294 29.952C43.0294 30.0693 43.024 30.2027 43.0134 30.352H36.4214V29.216H41.4454C41.4134 28.544 41.1894 28.0213 40.7734 27.648C40.3574 27.264 39.84 27.072 39.2214 27.072C38.784 27.072 38.384 27.1733 38.0214 27.376C37.6587 27.568 37.3654 27.856 37.1414 28.24C36.928 28.6133 36.8214 29.088 36.8214 29.664V30.112C36.8214 30.7093 36.928 31.216 37.1414 31.632C37.3654 32.0373 37.6587 32.3467 38.0214 32.56C38.384 32.7627 38.7787 32.864 39.2054 32.864C39.7174 32.864 40.1387 32.752 40.4694 32.528C40.8 32.304 41.0454 32 41.2054 31.616H42.8054C42.6667 32.1067 42.432 32.5493 42.1014 32.944C41.7707 33.328 41.36 33.632 40.8694 33.856C40.3894 34.08 39.8347 34.192 39.2054 34.192ZM46.1585 34L43.1345 25.936H44.8145L47.1025 32.464L49.4065 25.936H51.0545L48.0465 34H46.1585ZM55.1129 34.192C54.3449 34.192 53.6622 34.016 53.0649 33.664C52.4675 33.312 51.9982 32.8213 51.6569 32.192C51.3262 31.5627 51.1609 30.832 51.1609 30C51.1609 29.1467 51.3262 28.4053 51.6569 27.776C51.9982 27.136 52.4675 26.64 53.0649 26.288C53.6622 25.9253 54.3555 25.744 55.1449 25.744C55.9342 25.744 56.6115 25.92 57.1769 26.272C57.7422 26.624 58.1795 27.0933 58.4889 27.68C58.7982 28.256 58.9529 28.896 58.9529 29.6C58.9529 29.7067 58.9475 29.824 58.9369 29.952C58.9369 30.0693 58.9315 30.2027 58.9209 30.352H52.3289V29.216H57.3529C57.3209 28.544 57.0969 28.0213 56.6809 27.648C56.2649 27.264 55.7475 27.072 55.1289 27.072C54.6915 27.072 54.2915 27.1733 53.9289 27.376C53.5662 27.568 53.2729 27.856 53.0489 28.24C52.8355 28.6133 52.7289 29.088 52.7289 29.664V30.112C52.7289 30.7093 52.8355 31.216 53.0489 31.632C53.2729 32.0373 53.5662 32.3467 53.9289 32.56C54.2915 32.7627 54.6862 32.864 55.1129 32.864C55.6249 32.864 56.0462 32.752 56.3769 32.528C56.7075 32.304 56.9529 32 57.1129 31.616H58.7129C58.5742 32.1067 58.3395 32.5493 58.0089 32.944C57.6782 33.328 57.2675 33.632 56.7769 33.856C56.2969 34.08 55.7422 34.192 55.1129 34.192ZM60.0905 34V22.48H61.6905V34H60.0905ZM66.9274 34.192C66.17 34.192 65.4874 34.016 64.8794 33.664C64.282 33.312 63.8074 32.8213 63.4554 32.192C63.114 31.552 62.9434 30.816 62.9434 29.984C62.9434 29.1307 63.1194 28.3893 63.4714 27.76C63.8234 27.12 64.3034 26.624 64.9114 26.272C65.5194 25.92 66.202 25.744 66.9594 25.744C67.7274 25.744 68.41 25.92 69.0074 26.272C69.6047 26.624 70.074 27.1147 70.4154 27.744C70.7674 28.3733 70.9434 29.1147 70.9434 29.968C70.9434 30.8213 70.7674 31.5627 70.4154 32.192C70.074 32.8213 69.5994 33.312 68.9914 33.664C68.3834 34.016 67.6954 34.192 66.9274 34.192ZM66.9274 32.816C67.3647 32.816 67.7594 32.7093 68.1114 32.496C68.474 32.2827 68.762 31.968 68.9754 31.552C69.1994 31.1253 69.3114 30.5973 69.3114 29.968C69.3114 29.3387 69.2047 28.816 68.9914 28.4C68.778 27.9733 68.49 27.6533 68.1274 27.44C67.7754 27.2267 67.386 27.12 66.9594 27.12C66.5327 27.12 66.138 27.2267 65.7754 27.44C65.4127 27.6533 65.1194 27.9733 64.8954 28.4C64.682 28.816 64.5754 29.3387 64.5754 29.968C64.5754 30.5973 64.682 31.1253 64.8954 31.552C65.1194 31.968 65.4074 32.2827 65.7594 32.496C66.122 32.7093 66.5114 32.816 66.9274 32.816ZM72.1855 37.52V25.936H73.6255L73.7855 27.184C73.9562 26.9387 74.1695 26.7093 74.4255 26.496C74.6815 26.272 74.9855 26.0907 75.3375 25.952C75.7002 25.8133 76.1215 25.744 76.6015 25.744C77.3695 25.744 78.0415 25.9307 78.6175 26.304C79.2042 26.6773 79.6575 27.184 79.9775 27.824C80.3082 28.4533 80.4735 29.1733 80.4735 29.984C80.4735 30.7947 80.3082 31.52 79.9775 32.16C79.6468 32.7893 79.1882 33.2853 78.6015 33.648C78.0255 34.0107 77.3535 34.192 76.5855 34.192C75.9562 34.192 75.4015 34.0693 74.9215 33.824C74.4415 33.568 74.0628 33.216 73.7855 32.768V37.52H72.1855ZM76.3295 32.8C76.8202 32.8 77.2522 32.6827 77.6255 32.448C78.0095 32.2133 78.3082 31.8827 78.5215 31.456C78.7455 31.0293 78.8575 30.5333 78.8575 29.968C78.8575 29.4027 78.7455 28.912 78.5215 28.496C78.3082 28.0693 78.0095 27.7387 77.6255 27.504C77.2522 27.2587 76.8202 27.136 76.3295 27.136C75.8282 27.136 75.3855 27.2587 75.0015 27.504C74.6282 27.7387 74.3348 28.0693 74.1215 28.496C73.9082 28.912 73.8015 29.4027 73.8015 29.968C73.8015 30.5333 73.9082 31.0293 74.1215 31.456C74.3348 31.8827 74.6282 32.2133 75.0015 32.448C75.3855 32.6827 75.8282 32.8 76.3295 32.8Z" fill="white"/>
<path d="M16.9894 6.66257C16.9874 6.93879 16.8966 7.20705 16.7305 7.42775C16.5644 7.64845 16.3317 7.80989 16.0668 7.88823L16.0505 7.89313L9.67709 9.67768L7.89254 16.0511L7.88763 16.0674C7.80918 16.3323 7.64771 16.5649 7.42704 16.7309C7.20637 16.897 6.93817 16.9878 6.66198 16.9899H6.63747C6.36663 16.9925 6.10188 16.9096 5.88083 16.7531C5.65978 16.5966 5.49367 16.3744 5.40609 16.1181L0.0753062 1.74606C0.0735808 1.74182 0.0722143 1.73745 0.0712207 1.73298C-0.00844465 1.50161 -0.021573 1.25252 0.0333295 1.01405C0.088232 0.775577 0.208961 0.557304 0.381782 0.384057C0.554604 0.210809 0.77258 0.0895438 1.01091 0.0340549C1.24925 -0.0214341 1.49837 -0.00891844 1.72994 0.0701775L1.74301 0.074263L16.1175 5.40668C16.3778 5.49565 16.6028 5.66552 16.7596 5.89147C16.9165 6.11742 16.997 6.38761 16.9894 6.66257Z" fill="#F06F00"/>
</svg>
