<svg width="101" height="43" viewBox="0 0 101 43" fill="none" xmlns="http://www.w3.org/2000/svg">
<rect width="93" height="35" rx="17.5" fill="#F06F00"/>
<path d="M17.168 23V11.8H20.608C21.9093 11.8 22.9867 12.0293 23.84 12.488C24.6933 12.9467 25.3227 13.5973 25.728 14.44C26.144 15.272 26.352 16.264 26.352 17.416C26.352 18.568 26.144 19.56 25.728 20.392C25.3227 21.224 24.6933 21.8693 23.84 22.328C22.9973 22.776 21.92 23 20.608 23H17.168ZM18.768 21.656H20.544C21.5787 21.656 22.4 21.4853 23.008 21.144C23.616 20.8027 24.048 20.3173 24.304 19.688C24.5707 19.048 24.704 18.2907 24.704 17.416C24.704 16.5307 24.5707 15.768 24.304 15.128C24.048 14.488 23.616 13.9973 23.008 13.656C22.4 13.3147 21.5787 13.144 20.544 13.144H18.768V21.656ZM27.6694 23V14.936H29.2694V23H27.6694ZM28.4854 13.416C28.176 13.416 27.92 13.32 27.7174 13.128C27.5254 12.936 27.4294 12.6907 27.4294 12.392C27.4294 12.104 27.5254 11.8693 27.7174 11.688C27.92 11.496 28.176 11.4 28.4854 11.4C28.784 11.4 29.0347 11.496 29.2374 11.688C29.44 11.8693 29.5414 12.104 29.5414 12.392C29.5414 12.6907 29.44 12.936 29.2374 13.128C29.0347 13.32 28.784 13.416 28.4854 13.416ZM34.0374 23.192C33.3547 23.192 32.7574 23.08 32.2454 22.856C31.7334 22.632 31.328 22.3173 31.0294 21.912C30.7307 21.5067 30.5494 21.032 30.4854 20.488H32.1174C32.1707 20.744 32.272 20.9787 32.4214 21.192C32.5814 21.4053 32.7947 21.576 33.0614 21.704C33.3387 21.832 33.664 21.896 34.0374 21.896C34.3894 21.896 34.6774 21.848 34.9014 21.752C35.136 21.6453 35.3067 21.5067 35.4134 21.336C35.52 21.1547 35.5734 20.9627 35.5734 20.76C35.5734 20.4613 35.4987 20.2373 35.3494 20.088C35.2107 19.928 34.9974 19.8053 34.7094 19.72C34.432 19.624 34.096 19.5387 33.7014 19.464C33.328 19.4 32.9654 19.3147 32.6134 19.208C32.272 19.0907 31.9627 18.9467 31.6854 18.776C31.4187 18.6053 31.2054 18.392 31.0454 18.136C30.8854 17.8693 30.8054 17.544 30.8054 17.16C30.8054 16.7013 30.928 16.2907 31.1734 15.928C31.4187 15.5547 31.7654 15.2667 32.2134 15.064C32.672 14.8507 33.2107 14.744 33.8294 14.744C34.7254 14.744 35.4454 14.9573 35.9894 15.384C36.5334 15.8107 36.8534 16.4133 36.9494 17.192H35.3974C35.3547 16.8293 35.1947 16.552 34.9174 16.36C34.64 16.1573 34.272 16.056 33.8134 16.056C33.3547 16.056 33.0027 16.1467 32.7574 16.328C32.512 16.5093 32.3894 16.7493 32.3894 17.048C32.3894 17.24 32.4587 17.4107 32.5974 17.56C32.736 17.7093 32.9387 17.8373 33.2054 17.944C33.4827 18.04 33.8187 18.1307 34.2134 18.216C34.7787 18.3227 35.2854 18.456 35.7334 18.616C36.1814 18.776 36.5387 19.0107 36.8054 19.32C37.072 19.6293 37.2054 20.072 37.2054 20.648C37.216 21.1493 37.088 21.592 36.8214 21.976C36.5654 22.36 36.1974 22.6587 35.7174 22.872C35.248 23.0853 34.688 23.192 34.0374 23.192ZM42.1773 23.192C41.3986 23.192 40.7053 23.016 40.0972 22.664C39.4893 22.3013 39.0093 21.8053 38.6572 21.176C38.3159 20.5467 38.1452 19.816 38.1452 18.984C38.1452 18.1413 38.3159 17.4053 38.6572 16.776C39.0093 16.136 39.4893 15.64 40.0972 15.288C40.7053 14.9253 41.3986 14.744 42.1773 14.744C43.1586 14.744 43.9799 15 44.6413 15.512C45.3026 16.024 45.7239 16.7173 45.9053 17.592H44.2413C44.1346 17.1227 43.8893 16.76 43.5052 16.504C43.1319 16.248 42.6839 16.12 42.1613 16.12C41.7346 16.12 41.3399 16.232 40.9773 16.456C40.6146 16.6693 40.3212 16.9893 40.0972 17.416C39.8839 17.832 39.7773 18.3493 39.7773 18.968C39.7773 19.4267 39.8413 19.8373 39.9692 20.2C40.0973 20.552 40.2679 20.8507 40.4813 21.096C40.7053 21.3413 40.9613 21.528 41.2493 21.656C41.5373 21.7733 41.8413 21.832 42.1613 21.832C42.5133 21.832 42.8279 21.7787 43.1053 21.672C43.3933 21.5547 43.6333 21.384 43.8253 21.16C44.0279 20.936 44.1666 20.6693 44.2413 20.36H45.9053C45.7239 21.2133 45.3026 21.9013 44.6413 22.424C43.9799 22.936 43.1586 23.192 42.1773 23.192ZM50.8174 23.192C50.06 23.192 49.3774 23.016 48.7694 22.664C48.172 22.312 47.6974 21.8213 47.3454 21.192C47.004 20.552 46.8334 19.816 46.8334 18.984C46.8334 18.1307 47.0094 17.3893 47.3614 16.76C47.7134 16.12 48.1934 15.624 48.8014 15.272C49.4094 14.92 50.092 14.744 50.8494 14.744C51.6174 14.744 52.3 14.92 52.8974 15.272C53.4947 15.624 53.964 16.1147 54.3054 16.744C54.6574 17.3733 54.8334 18.1147 54.8334 18.968C54.8334 19.8213 54.6574 20.5627 54.3054 21.192C53.964 21.8213 53.4894 22.312 52.8814 22.664C52.2734 23.016 51.5854 23.192 50.8174 23.192ZM50.8174 21.816C51.2547 21.816 51.6494 21.7093 52.0014 21.496C52.364 21.2827 52.652 20.968 52.8654 20.552C53.0894 20.1253 53.2014 19.5973 53.2014 18.968C53.2014 18.3387 53.0947 17.816 52.8814 17.4C52.668 16.9733 52.38 16.6533 52.0174 16.44C51.6654 16.2267 51.276 16.12 50.8494 16.12C50.4227 16.12 50.028 16.2267 49.6654 16.44C49.3027 16.6533 49.0094 16.9733 48.7854 17.4C48.572 17.816 48.4654 18.3387 48.4654 18.968C48.4654 19.5973 48.572 20.1253 48.7854 20.552C49.0094 20.968 49.2974 21.2827 49.6494 21.496C50.012 21.7093 50.4014 21.816 50.8174 21.816ZM57.9729 23L54.9489 14.936H56.6289L58.9169 21.464L61.2209 14.936H62.8689L59.8609 23H57.9729ZM66.9272 23.192C66.1592 23.192 65.4766 23.016 64.8793 22.664C64.2819 22.312 63.8126 21.8213 63.4712 21.192C63.1406 20.5627 62.9752 19.832 62.9752 19C62.9752 18.1467 63.1406 17.4053 63.4712 16.776C63.8126 16.136 64.2819 15.64 64.8793 15.288C65.4766 14.9253 66.1699 14.744 66.9592 14.744C67.7486 14.744 68.4259 14.92 68.9913 15.272C69.5566 15.624 69.9939 16.0933 70.3033 16.68C70.6126 17.256 70.7673 17.896 70.7673 18.6C70.7673 18.7067 70.7619 18.824 70.7513 18.952C70.7513 19.0693 70.7459 19.2027 70.7353 19.352H64.1432V18.216H69.1673C69.1353 17.544 68.9113 17.0213 68.4953 16.648C68.0793 16.264 67.5619 16.072 66.9433 16.072C66.5059 16.072 66.1059 16.1733 65.7433 16.376C65.3806 16.568 65.0872 16.856 64.8633 17.24C64.6499 17.6133 64.5432 18.088 64.5432 18.664V19.112C64.5432 19.7093 64.6499 20.216 64.8633 20.632C65.0872 21.0373 65.3806 21.3467 65.7433 21.56C66.1059 21.7627 66.5006 21.864 66.9272 21.864C67.4392 21.864 67.8606 21.752 68.1913 21.528C68.5219 21.304 68.7673 21 68.9273 20.616H70.5273C70.3886 21.1067 70.1539 21.5493 69.8233 21.944C69.4926 22.328 69.0819 22.632 68.5912 22.856C68.1113 23.08 67.5566 23.192 66.9272 23.192ZM71.9049 23V14.936H73.3449L73.4889 16.456C73.6702 16.0933 73.9049 15.7893 74.1929 15.544C74.4809 15.288 74.8169 15.0907 75.2009 14.952C75.5955 14.8133 76.0435 14.744 76.5449 14.744V16.44H75.9689C75.6382 16.44 75.3235 16.4827 75.0249 16.568C74.7262 16.6427 74.4595 16.776 74.2249 16.968C74.0009 17.16 73.8249 17.4213 73.6969 17.752C73.5689 18.0827 73.5049 18.4933 73.5049 18.984V23H71.9049Z" fill="white"/>
<path d="M82.5344 34.2941C82.5585 34.0189 82.6704 33.7588 82.8536 33.5521C83.0369 33.3454 83.2818 33.2031 83.5521 33.1462L83.5688 33.1427L90.0646 31.8743L92.3539 25.6643L92.3601 25.6484C92.4595 25.3907 92.639 25.1718 92.8723 25.0239C93.1056 24.876 93.3802 24.807 93.6557 24.827L93.6801 24.8289C93.9503 24.8481 94.2075 24.9519 94.4153 25.1256C94.6231 25.2994 94.7709 25.5341 94.8377 25.7966L99.0003 40.5494C99.0017 40.5538 99.0027 40.5582 99.0033 40.5628C99.0642 40.7998 99.0574 41.0491 98.9835 41.2824C98.9097 41.5157 98.7719 41.7236 98.5857 41.8825C98.3996 42.0413 98.1726 42.1448 97.9306 42.181C97.6886 42.2172 97.4413 42.1848 97.2168 42.0874L97.2041 42.0823L83.3028 35.6158C83.0505 35.5062 82.8398 35.3189 82.7016 35.0811C82.5633 34.8433 82.5047 34.5675 82.5344 34.2941Z" fill="#F06F00"/>
</svg>
