<svg width="89" height="41" viewBox="0 0 89 41" fill="none" xmlns="http://www.w3.org/2000/svg">
<rect x="8.99951" width="80" height="35" rx="17.5" fill="white"/>
<path d="M26.1675 23V11.8H29.6075C30.9088 11.8 31.9862 12.0293 32.8395 12.488C33.6928 12.9467 34.3222 13.5973 34.7275 14.44C35.1435 15.272 35.3515 16.264 35.3515 17.416C35.3515 18.568 35.1435 19.56 34.7275 20.392C34.3222 21.224 33.6928 21.8693 32.8395 22.328C31.9968 22.776 30.9195 23 29.6075 23H26.1675ZM27.7675 21.656H29.5435C30.5782 21.656 31.3995 21.4853 32.0075 21.144C32.6155 20.8027 33.0475 20.3173 33.3035 19.688C33.5702 19.048 33.7035 18.2907 33.7035 17.416C33.7035 16.5307 33.5702 15.768 33.3035 15.128C33.0475 14.488 32.6155 13.9973 32.0075 13.656C31.3995 13.3147 30.5782 13.144 29.5435 13.144H27.7675V21.656ZM40.2049 23.192C39.4369 23.192 38.7542 23.016 38.1569 22.664C37.5596 22.312 37.0902 21.8213 36.7489 21.192C36.4182 20.5627 36.2529 19.832 36.2529 19C36.2529 18.1467 36.4182 17.4053 36.7489 16.776C37.0902 16.136 37.5596 15.64 38.1569 15.288C38.7542 14.9253 39.4476 14.744 40.2369 14.744C41.0262 14.744 41.7036 14.92 42.2689 15.272C42.8342 15.624 43.2716 16.0933 43.5809 16.68C43.8902 17.256 44.0449 17.896 44.0449 18.6C44.0449 18.7067 44.0396 18.824 44.0289 18.952C44.0289 19.0693 44.0236 19.2027 44.0129 19.352H37.4209V18.216H42.4449C42.4129 17.544 42.1889 17.0213 41.7729 16.648C41.3569 16.264 40.8396 16.072 40.2209 16.072C39.7836 16.072 39.3836 16.1733 39.0209 16.376C38.6582 16.568 38.3649 16.856 38.1409 17.24C37.9276 17.6133 37.8209 18.088 37.8209 18.664V19.112C37.8209 19.7093 37.9276 20.216 38.1409 20.632C38.3649 21.0373 38.6582 21.3467 39.0209 21.56C39.3836 21.7627 39.7782 21.864 40.2049 21.864C40.7169 21.864 41.1382 21.752 41.4689 21.528C41.7996 21.304 42.0449 21 42.2049 20.616H43.8049C43.6662 21.1067 43.4316 21.5493 43.1009 21.944C42.7702 22.328 42.3596 22.632 41.8689 22.856C41.3889 23.08 40.8342 23.192 40.2049 23.192ZM45.1825 23V11.48H46.7825V23H45.1825ZM48.4514 23V14.936H50.0514V23H48.4514ZM49.2674 13.416C48.9581 13.416 48.7021 13.32 48.4994 13.128C48.3074 12.936 48.2114 12.6907 48.2114 12.392C48.2114 12.104 48.3074 11.8693 48.4994 11.688C48.7021 11.496 48.9581 11.4 49.2674 11.4C49.5661 11.4 49.8167 11.496 50.0194 11.688C50.2221 11.8693 50.3234 12.104 50.3234 12.392C50.3234 12.6907 50.2221 12.936 50.0194 13.128C49.8167 13.32 49.5661 13.416 49.2674 13.416ZM53.9874 23L50.9634 14.936H52.6434L54.9314 21.464L57.2354 14.936H58.8834L55.8754 23H53.9874ZM62.9418 23.192C62.1738 23.192 61.4911 23.016 60.8938 22.664C60.2964 22.312 59.8271 21.8213 59.4858 21.192C59.1551 20.5627 58.9898 19.832 58.9898 19C58.9898 18.1467 59.1551 17.4053 59.4858 16.776C59.8271 16.136 60.2964 15.64 60.8938 15.288C61.4911 14.9253 62.1844 14.744 62.9738 14.744C63.7631 14.744 64.4404 14.92 65.0058 15.272C65.5711 15.624 66.0084 16.0933 66.3178 16.68C66.6271 17.256 66.7818 17.896 66.7818 18.6C66.7818 18.7067 66.7764 18.824 66.7658 18.952C66.7658 19.0693 66.7604 19.2027 66.7498 19.352H60.1578V18.216H65.1818C65.1498 17.544 64.9258 17.0213 64.5098 16.648C64.0938 16.264 63.5764 16.072 62.9578 16.072C62.5204 16.072 62.1204 16.1733 61.7578 16.376C61.3951 16.568 61.1018 16.856 60.8778 17.24C60.6644 17.6133 60.5578 18.088 60.5578 18.664V19.112C60.5578 19.7093 60.6644 20.216 60.8778 20.632C61.1018 21.0373 61.3951 21.3467 61.7578 21.56C62.1204 21.7627 62.5151 21.864 62.9418 21.864C63.4538 21.864 63.8751 21.752 64.2058 21.528C64.5364 21.304 64.7818 21 64.9418 20.616H66.5418C66.4031 21.1067 66.1684 21.5493 65.8378 21.944C65.5071 22.328 65.0964 22.632 64.6058 22.856C64.1258 23.08 63.5711 23.192 62.9418 23.192ZM67.9194 23V14.936H69.3594L69.5034 16.456C69.6847 16.0933 69.9194 15.7893 70.2074 15.544C70.4954 15.288 70.8314 15.0907 71.2154 14.952C71.6101 14.8133 72.0581 14.744 72.5594 14.744V16.44H71.9834C71.6527 16.44 71.3381 16.4827 71.0394 16.568C70.7407 16.6427 70.4741 16.776 70.2394 16.968C70.0154 17.16 69.8394 17.4213 69.7114 17.752C69.5834 18.0827 69.5194 18.4933 69.5194 18.984V23H67.9194Z" fill="#120B05"/>
<path d="M6.65919 23.7865C6.93533 23.7797 7.20634 23.8619 7.43219 24.0209C7.65805 24.18 7.82678 24.4074 7.91347 24.6697L7.91889 24.6859L9.9046 30.9995L16.3314 32.5811L16.3479 32.5855C16.615 32.6555 16.8526 32.8095 17.0257 33.0248C17.1987 33.2401 17.2979 33.5053 17.3088 33.7813L17.3096 33.8058C17.3207 34.0764 17.2462 34.3436 17.0968 34.5695C16.9474 34.7954 16.7306 34.9685 16.4772 35.0642L2.28137 40.8479C2.27719 40.8498 2.27286 40.8513 2.26843 40.8524C2.03969 40.9394 1.79114 40.9604 1.55105 40.9131C1.31096 40.8657 1.08897 40.752 0.910334 40.5847C0.731695 40.4175 0.60358 40.2035 0.540563 39.967C0.477547 39.7306 0.482158 39.4812 0.553873 39.2472L0.557542 39.234L5.43157 24.6977C5.51224 24.4347 5.67489 24.2045 5.89576 24.0405C6.11662 23.8766 6.38413 23.7876 6.65919 23.7865Z" fill="#F06F00"/>
</svg>
