<svg width="90" height="49" viewBox="0 0 90 49" fill="none" xmlns="http://www.w3.org/2000/svg">
<rect y="13.541" width="80" height="35" rx="17.5" fill="white"/>
<path d="M17.168 36.541V25.341H20.608C21.9093 25.341 22.9867 25.5703 23.84 26.029C24.6933 26.4877 25.3227 27.1383 25.728 27.981C26.144 28.813 26.352 29.805 26.352 30.957C26.352 32.109 26.144 33.101 25.728 33.933C25.3227 34.765 24.6933 35.4103 23.84 35.869C22.9973 36.317 21.92 36.541 20.608 36.541H17.168ZM18.768 35.197H20.544C21.5787 35.197 22.4 35.0263 23.008 34.685C23.616 34.3437 24.048 33.8583 24.304 33.229C24.5707 32.589 24.704 31.8317 24.704 30.957C24.704 30.0717 24.5707 29.309 24.304 28.669C24.048 28.029 23.616 27.5383 23.008 27.197C22.4 26.8557 21.5787 26.685 20.544 26.685H18.768V35.197ZM31.2054 36.733C30.4374 36.733 29.7547 36.557 29.1574 36.205C28.56 35.853 28.0907 35.3623 27.7494 34.733C27.4187 34.1037 27.2534 33.373 27.2534 32.541C27.2534 31.6877 27.4187 30.9463 27.7494 30.317C28.0907 29.677 28.56 29.181 29.1574 28.829C29.7547 28.4663 30.448 28.285 31.2374 28.285C32.0267 28.285 32.704 28.461 33.2694 28.813C33.8347 29.165 34.272 29.6343 34.5814 30.221C34.8907 30.797 35.0454 31.437 35.0454 32.141C35.0454 32.2477 35.04 32.365 35.0294 32.493C35.0294 32.6103 35.024 32.7437 35.0134 32.893H28.4214V31.757H33.4454C33.4134 31.085 33.1894 30.5623 32.7734 30.189C32.3574 29.805 31.84 29.613 31.2214 29.613C30.784 29.613 30.384 29.7143 30.0214 29.917C29.6587 30.109 29.3654 30.397 29.1414 30.781C28.928 31.1543 28.8214 31.629 28.8214 32.205V32.653C28.8214 33.2503 28.928 33.757 29.1414 34.173C29.3654 34.5783 29.6587 34.8877 30.0214 35.101C30.384 35.3037 30.7787 35.405 31.2054 35.405C31.7174 35.405 32.1387 35.293 32.4694 35.069C32.8 34.845 33.0454 34.541 33.2054 34.157H34.8054C34.6667 34.6477 34.432 35.0903 34.1014 35.485C33.7707 35.869 33.36 36.173 32.8694 36.397C32.3894 36.621 31.8347 36.733 31.2054 36.733ZM39.303 36.733C38.6203 36.733 38.023 36.621 37.511 36.397C36.999 36.173 36.5937 35.8583 36.295 35.453C35.9963 35.0477 35.815 34.573 35.751 34.029H37.383C37.4363 34.285 37.5377 34.5197 37.687 34.733C37.847 34.9463 38.0603 35.117 38.327 35.245C38.6043 35.373 38.9297 35.437 39.303 35.437C39.655 35.437 39.943 35.389 40.167 35.293C40.4017 35.1863 40.5723 35.0477 40.679 34.877C40.7857 34.6957 40.839 34.5037 40.839 34.301C40.839 34.0023 40.7643 33.7783 40.615 33.629C40.4763 33.469 40.263 33.3463 39.975 33.261C39.6977 33.165 39.3617 33.0797 38.967 33.005C38.5937 32.941 38.231 32.8557 37.879 32.749C37.5377 32.6317 37.2283 32.4877 36.951 32.317C36.6843 32.1463 36.471 31.933 36.311 31.677C36.151 31.4103 36.071 31.085 36.071 30.701C36.071 30.2423 36.1937 29.8317 36.439 29.469C36.6843 29.0957 37.031 28.8077 37.479 28.605C37.9377 28.3917 38.4763 28.285 39.095 28.285C39.991 28.285 40.711 28.4983 41.255 28.925C41.799 29.3517 42.119 29.9543 42.215 30.733H40.663C40.6203 30.3703 40.4603 30.093 40.183 29.901C39.9057 29.6983 39.5377 29.597 39.079 29.597C38.6203 29.597 38.2683 29.6877 38.023 29.869C37.7777 30.0503 37.655 30.2903 37.655 30.589C37.655 30.781 37.7243 30.9517 37.863 31.101C38.0017 31.2503 38.2043 31.3783 38.471 31.485C38.7483 31.581 39.0843 31.6717 39.479 31.757C40.0443 31.8637 40.551 31.997 40.999 32.157C41.447 32.317 41.8043 32.5517 42.071 32.861C42.3377 33.1703 42.471 33.613 42.471 34.189C42.4817 34.6903 42.3537 35.133 42.087 35.517C41.831 35.901 41.463 36.1997 40.983 36.413C40.5137 36.6263 39.9537 36.733 39.303 36.733ZM43.8269 36.541V28.477H45.4269V36.541H43.8269ZM44.6429 26.957C44.3335 26.957 44.0775 26.861 43.8749 26.669C43.6829 26.477 43.5869 26.2317 43.5869 25.933C43.5869 25.645 43.6829 25.4103 43.8749 25.229C44.0775 25.037 44.3335 24.941 44.6429 24.941C44.9415 24.941 45.1922 25.037 45.3949 25.229C45.5975 25.4103 45.6989 25.645 45.6989 25.933C45.6989 26.2317 45.5975 26.477 45.3949 26.669C45.1922 26.861 44.9415 26.957 44.6429 26.957ZM50.3549 40.253C49.6189 40.253 48.9682 40.157 48.4029 39.965C47.8375 39.7837 47.4002 39.501 47.0909 39.117C46.7815 38.733 46.6269 38.2637 46.6269 37.709C46.6269 37.421 46.6909 37.1277 46.8189 36.829C46.9469 36.541 47.1549 36.2637 47.4429 35.997C47.7309 35.7303 48.1202 35.4903 48.6109 35.277L49.5069 35.997C48.9629 36.1997 48.5949 36.4397 48.4029 36.717C48.2215 37.005 48.1309 37.2823 48.1309 37.549C48.1309 37.869 48.2269 38.1357 48.4189 38.349C48.6109 38.5623 48.8722 38.7223 49.2029 38.829C49.5442 38.9357 49.9282 38.989 50.3549 38.989C50.7709 38.989 51.1335 38.9303 51.4429 38.813C51.7522 38.6957 51.9922 38.5303 52.1629 38.317C52.3335 38.1037 52.4189 37.853 52.4189 37.565C52.4189 37.2237 52.2909 36.9357 52.0349 36.701C51.7789 36.477 51.2882 36.3437 50.5629 36.301C49.9549 36.2583 49.4375 36.1997 49.0109 36.125C48.5949 36.0503 48.2375 35.9597 47.9389 35.853C47.6509 35.7463 47.4055 35.629 47.2029 35.501C47.0109 35.373 46.8455 35.2397 46.7069 35.101V34.733L48.3069 33.085L49.6029 33.533L47.8589 35.149L48.1949 34.429C48.3122 34.5037 48.4242 34.5783 48.5309 34.653C48.6375 34.717 48.7815 34.7757 48.9629 34.829C49.1442 34.8823 49.3895 34.9303 49.6989 34.973C50.0082 35.0157 50.4135 35.0583 50.9149 35.101C51.6402 35.1543 52.2215 35.2823 52.6589 35.485C53.1069 35.6877 53.4322 35.9597 53.6349 36.301C53.8375 36.6423 53.9389 37.0477 53.9389 37.517C53.9389 37.9757 53.8109 38.413 53.5549 38.829C53.3095 39.245 52.9202 39.5863 52.3869 39.853C51.8642 40.1197 51.1869 40.253 50.3549 40.253ZM50.3549 34.061C49.6722 34.061 49.0909 33.933 48.6109 33.677C48.1415 33.421 47.7789 33.0743 47.5229 32.637C47.2775 32.1997 47.1549 31.7143 47.1549 31.181C47.1549 30.637 47.2775 30.1517 47.5229 29.725C47.7789 29.2877 48.1469 28.941 48.6269 28.685C49.1069 28.4183 49.6829 28.285 50.3549 28.285C51.0269 28.285 51.5975 28.4183 52.0669 28.685C52.5469 28.941 52.9095 29.2877 53.1549 29.725C53.4109 30.1517 53.5389 30.637 53.5389 31.181C53.5389 31.7143 53.4109 32.1997 53.1549 32.637C52.9095 33.0743 52.5469 33.421 52.0669 33.677C51.5975 33.933 51.0269 34.061 50.3549 34.061ZM50.3549 32.781C50.8775 32.781 51.2935 32.6477 51.6029 32.381C51.9122 32.1037 52.0669 31.7037 52.0669 31.181C52.0669 30.6583 51.9122 30.2637 51.6029 29.997C51.2935 29.7197 50.8775 29.581 50.3549 29.581C49.8322 29.581 49.4109 29.7197 49.0909 29.997C48.7709 30.2637 48.6109 30.6583 48.6109 31.181C48.6109 31.7037 48.7709 32.1037 49.0909 32.381C49.4109 32.6477 49.8322 32.781 50.3549 32.781ZM51.6669 29.741L51.2829 28.477H54.5949V29.581L51.6669 29.741ZM55.5599 36.541V28.477H56.9999L57.0959 29.853C57.3519 29.373 57.7145 28.9943 58.1839 28.717C58.6532 28.429 59.1919 28.285 59.7999 28.285C60.4399 28.285 60.9892 28.413 61.4479 28.669C61.9065 28.925 62.2639 29.3143 62.5199 29.837C62.7759 30.349 62.9039 30.9943 62.9039 31.773V36.541H61.3039V31.933C61.3039 31.1863 61.1385 30.621 60.8079 30.237C60.4772 29.853 59.9972 29.661 59.3679 29.661C58.9519 29.661 58.5785 29.7623 58.2479 29.965C57.9172 30.157 57.6505 30.445 57.4479 30.829C57.2559 31.213 57.1599 31.6823 57.1599 32.237V36.541H55.5599Z" fill="#120B05"/>
<path d="M82.5333 17.6012C82.2585 17.6286 81.9821 17.5669 81.745 17.4252C81.5079 17.2835 81.3226 17.0693 81.2166 16.8142L81.21 16.7985L78.7582 10.6508L72.2312 9.55376L72.2144 9.55062C71.9428 9.50075 71.6943 9.36492 71.5057 9.16315C71.3171 8.96138 71.1983 8.70435 71.1669 8.42995L71.1643 8.40558C71.133 8.13654 71.1872 7.86449 71.3194 7.62806C71.4515 7.39162 71.6548 7.20284 71.9003 7.08852L85.6244 0.260452C85.6284 0.258286 85.6326 0.256463 85.6369 0.255C85.8585 0.151195 86.1048 0.111668 86.3478 0.140914C86.5907 0.170161 86.8206 0.267008 87.0112 0.420438C87.2019 0.573868 87.3456 0.777721 87.4261 1.00881C87.5066 1.23989 87.5207 1.48893 87.4666 1.7276L87.4639 1.74104L83.6895 16.6008C83.6287 16.8691 83.4837 17.1109 83.2757 17.2909C83.0677 17.4709 82.8076 17.5796 82.5333 17.6012Z" fill="#F06F00"/>
</svg>
